<svg width="20" height="20" viewBox="0 0 20 20" fill="none" xmlns="http://www.w3.org/2000/svg">
<path d="M17.5 10.8333C17.5 14.975 14.1417 18.3333 10 18.3333C9.24167 18.3333 8.5 18.225 7.8 18.025L2.5 19.1667L3.64167 13.8667C2.05 12.5583 1.66667 10.55 2.15833 8.75833" fill="currentColor"/>
<path d="M17.5 10.8333C17.5 14.975 14.1417 18.3333 10 18.3333C9.24167 18.3333 8.5 18.225 7.8 18.025L2.5 19.1667L3.64167 13.8667C2.05 12.5583 1.66667 10.55 2.15833 8.75833" stroke="currentColor" stroke-width="1.5" stroke-linecap="round" stroke-linejoin="round"/>
<path d="M17.5 5.83333C17.5 3.28333 15.2167 1.25 12.5 1.25C10.2 1.25 8.25834 2.86667 7.74167 5.00001" stroke="currentColor" stroke-width="1.5" stroke-linecap="round" stroke-linejoin="round"/>
</svg>
