<svg preserveAspectRatio="none" width="100%" height="100%" overflow="visible" style="display: block;" viewBox="0 0 16 16" fill="none" xmlns="http://www.w3.org/2000/svg">
<g id="Vector">
<path fill-rule="evenodd" clip-rule="evenodd" d="M0 8C0 3.58172 3.58172 0 8 0C12.4183 0 16 3.58172 16 8C16 12.4183 12.4183 16 8 16C3.58172 16 0 12.4183 0 8ZM7.54325 11.4247L12.1498 5.66647L11.3169 5.00013L7.39013 9.90859L4.60812 7.59025L3.92526 8.40969L7.54325 11.4247Z" fill="#D9D9D9"/>
<path fill-rule="evenodd" clip-rule="evenodd" d="M0 8C0 3.58172 3.58172 0 8 0C12.4183 0 16 3.58172 16 8C16 12.4183 12.4183 16 8 16C3.58172 16 0 12.4183 0 8ZM7.54325 11.4247L12.1498 5.66647L11.3169 5.00013L7.39013 9.90859L4.60812 7.59025L3.92526 8.40969L7.54325 11.4247Z" fill="black" fill-opacity="0.2"/>
</g>
</svg>
