<svg width="18" height="16" viewBox="0 0 18 16" fill="none" xmlns="http://www.w3.org/2000/svg">
<path d="M15.84 2.32C15.4563 1.93065 14.9913 1.62553 14.4763 1.42441C13.9614 1.22329 13.408 1.13086 12.85 1.13086C12.292 1.13086 11.7386 1.22329 11.2237 1.42441C10.7087 1.62553 10.2437 1.93065 9.86 2.32L9 3.18L8.14 2.32C7.36941 1.54941 6.3282 1.1313 5.25 1.1313C4.1718 1.1313 3.13059 1.54941 2.36 2.32C1.58941 3.09059 1.1713 4.1318 1.1713 5.21C1.1713 6.2882 1.58941 7.32941 2.36 8.1L3.22 8.96L9 14.74L14.78 8.96L15.64 8.1C16.0293 7.71635 16.3345 7.25135 16.5356 6.73639C16.7367 6.22142 16.8291 5.66801 16.8291 5.11C16.8291 4.55199 16.7367 3.99858 16.5356 3.48361C16.3345 2.96865 16.0293 2.50365 15.64 2.12L15.84 2.32Z" stroke="#272727" stroke-width="1.5" stroke-linecap="round" stroke-linejoin="round"/>
</svg>
