<svg width="104" height="85" viewBox="0 0 104 85" fill="none" xmlns="http://www.w3.org/2000/svg">
<rect x="26.9904" y="34.0772" width="15.7586" height="44.1725" rx="7.26962" transform="rotate(-21.6484 26.9904 34.0772)" fill="white" stroke="white" stroke-width="0.437291"/>
<rect x="101.605" y="17.1797" width="7.80823" height="100.485" rx="3.90411" transform="rotate(90 101.605 17.1797)" fill="white" stroke="white" stroke-width="2.23929"/>
<rect x="21.5862" y="0.27269" width="15.7586" height="73.4387" rx="7.26962" transform="rotate(16.8712 21.5862 0.27269)" fill="white" stroke="white" stroke-width="0.437291"/>
<path d="M27.5784 2.03595L28.1101 2.19722L18.242 34.7357L13.8217 33.3951L22.5105 4.74523C23.1618 2.59763 25.4308 1.38464 27.5784 2.03595Z" fill="#B2E4BD" stroke="white" stroke-width="0.202466"/>
<path d="M73.5332 32.6752L59.6363 30.4057L59.6363 70.2556L99.6308 69.0984L98.763 59.1898C75.475 57.1648 69.9046 61.1533 68.1704 62.2997C72.3542 54.4982 73.851 39.778 73.5332 32.6752Z" fill="white"/>
<path d="M59.6363 30.4057L59.9951 28.2087L57.4102 27.7866L57.4102 30.4057L59.6363 30.4057ZM73.5332 32.6752L75.7571 32.5757L75.6763 30.7696L73.892 30.4782L73.5332 32.6752ZM68.1704 62.2997L66.2086 61.2476L69.398 64.1567L68.1704 62.2997ZM98.763 59.1898L100.981 58.9956L100.818 57.134L98.9558 56.9721L98.763 59.1898ZM99.6308 69.0984L99.6952 71.3236L102.054 71.2553L101.848 68.9042L99.6308 69.0984ZM59.6363 70.2556L57.4102 70.2556C57.4102 70.8571 57.6537 71.4331 58.0852 71.8523C58.5167 72.2715 59.0994 72.4982 59.7007 72.4808L59.6363 70.2556ZM59.6363 30.4057L59.2776 32.6027L73.1745 34.8722L73.5332 32.6752L73.892 30.4782L59.9951 28.2087L59.6363 30.4057ZM73.5332 32.6752L71.3094 32.7747C71.4604 36.151 71.1797 41.4568 70.34 46.8851C69.4945 52.3504 68.1205 57.6826 66.2086 61.2476L68.1704 62.2997L70.1322 63.3518C72.4041 59.1154 73.8703 53.1866 74.7398 47.5657C75.615 41.9079 75.9238 36.3022 75.7571 32.5757L73.5332 32.6752ZM68.1704 62.2997L69.398 64.1567C70.1048 63.6895 71.6604 62.555 75.8128 61.7399C80.0602 60.9062 87.0507 60.4059 98.5701 61.4075L98.763 59.1898L98.9558 56.9721C87.1873 55.9487 79.7486 56.4302 74.9553 57.371C70.067 58.3306 67.9702 59.7635 66.9428 60.4427L68.1704 62.2997ZM98.763 59.1898L96.5454 59.384L97.4132 69.2926L99.6308 69.0984L101.848 68.9042L100.981 58.9956L98.763 59.1898ZM59.6363 30.4057L57.4102 30.4057L57.4102 70.2556L59.6363 70.2556L61.8624 70.2556L61.8624 30.4057L59.6363 30.4057ZM59.6363 70.2556L59.7007 72.4808L99.6952 71.3236L99.6308 69.0984L99.5665 66.8732L59.572 68.0304L59.6363 70.2556Z" fill="white"/>
<rect x="57.6894" y="68.5976" width="45.2628" height="3.60485" rx="1.80243" fill="#B2E4BD" stroke="white" stroke-width="0.445221"/>
<rect x="57.6469" y="71.0455" width="45.2628" height="3.60485" rx="1.80243" transform="rotate(-90 57.6469 71.0455)" fill="#B2E4BD" stroke="white" stroke-width="0.445221"/>
</svg>
