<svg width="112" height="92" viewBox="0 0 112 92" fill="none" xmlns="http://www.w3.org/2000/svg">
<rect x="28.8291" y="36.6533" width="17.4832" height="48.1554" rx="8.08344" transform="rotate(-21.6484 28.8291 36.6533)" fill="#389D4F"/>
<rect x="110.889" y="17.3364" width="10.8461" height="110.889" rx="5.42305" transform="rotate(90 110.889 17.3364)" fill="#389D4F"/>
<rect x="23.1445" width="17.4832" height="79.7477" rx="8.08344" transform="rotate(16.8712 23.1445 0)" fill="#389D4F"/>
<path d="M24.1948 5.0903C24.9154 2.71425 27.4257 1.37224 29.8017 2.09283L30.481 2.29883L19.7651 37.6329L14.7836 36.1221L24.1948 5.0903Z" fill="#B2E4BD"/>
<path d="M79.3774 35.2716L64.3759 32.8217L64.3759 75.8389L107.549 74.5898L106.612 63.8936C81.4735 61.7076 75.4604 66.0131 73.5883 67.2507C78.1046 58.8291 79.7204 42.9389 79.3774 35.2716Z" fill="#389D4F"/>
<path d="M64.3759 32.8217L64.7632 30.4501L61.9729 29.9944L61.9729 32.8217L64.3759 32.8217ZM79.3774 35.2716L81.778 35.1642L81.6908 33.2145L79.7647 32.9L79.3774 35.2716ZM73.5883 67.2507L71.4706 66.115L74.9135 69.2553L73.5883 67.2507ZM106.612 63.8936L109.006 63.6839L108.83 61.6744L106.821 61.4996L106.612 63.8936ZM107.549 74.5898L107.619 76.9918L110.165 76.9181L109.943 74.3801L107.549 74.5898ZM64.3759 75.8389L61.9729 75.8389C61.9729 76.4883 62.2357 77.11 62.7015 77.5625C63.1673 78.015 63.7963 78.2597 64.4454 78.2409L64.3759 75.8389ZM64.3759 32.8217L63.9886 35.1934L78.9901 37.6432L79.3774 35.2716L79.7647 32.9L64.7632 30.4501L64.3759 32.8217ZM79.3774 35.2716L76.9767 35.379C77.1398 39.0236 76.8367 44.7512 75.9303 50.6109C75.0177 56.5106 73.5344 62.2666 71.4706 66.115L73.5883 67.2507L75.706 68.3864C78.1585 63.8132 79.7413 57.4133 80.6799 51.3456C81.6246 45.2381 81.958 39.1869 81.778 35.1642L79.3774 35.2716ZM73.5883 67.2507L74.9135 69.2553C75.6765 68.7509 77.3556 67.5262 81.8381 66.6464C86.4231 65.7464 93.9692 65.2063 106.404 66.2876L106.612 63.8936L106.821 61.4996C94.1167 60.3949 86.0868 60.9146 80.9124 61.9303C75.6356 62.9661 73.3722 64.5129 72.2631 65.246L73.5883 67.2507ZM106.612 63.8936L104.219 64.1033L105.155 74.7994L107.549 74.5898L109.943 74.3801L109.006 63.6839L106.612 63.8936ZM64.3759 32.8217L61.9729 32.8217L61.9729 75.8389L64.3759 75.8389L66.779 75.8389L66.779 32.8217L64.3759 32.8217ZM64.3759 75.8389L64.4454 78.2409L107.619 76.9918L107.549 74.5898L107.48 72.1877L64.3064 73.4369L64.3759 75.8389Z" fill="#389D4F"/>
<rect x="62.0342" y="73.8091" width="49.3409" height="4.37198" rx="2.18599" fill="#B2E4BD"/>
<rect x="61.9883" y="76.9321" width="49.3409" height="4.37198" rx="2.18599" transform="rotate(-90 61.9883 76.9321)" fill="#B2E4BD"/>
</svg>
