<svg preserveAspectRatio="none" width="100%" height="100%" overflow="visible" style="display: block;" viewBox="0 0 20 20" fill="none" xmlns="http://www.w3.org/2000/svg">
<g id="Vector">
<path fill-rule="evenodd" clip-rule="evenodd" d="M3.33333 1.33333C2.22876 1.33333 1.33333 2.22876 1.33333 3.33333V6.66667H0V3.33333C0 1.49238 1.49238 0 3.33333 0H6.66667V1.33333H3.33333ZM16.6667 1.33333H13.3333V0H16.6667C18.5076 0 20 1.49238 20 3.33333V6.66667H18.6667V3.33333C18.6667 2.22876 17.7712 1.33333 16.6667 1.33333ZM17.3333 10.6667H2.66667V9.33333H17.3333V10.6667ZM0 16.6667V13.3333H1.33333V16.6667C1.33333 17.7712 2.22876 18.6667 3.33333 18.6667H6.66667V20H3.33333C1.49238 20 0 18.5076 0 16.6667ZM18.6667 16.6667V13.3333H20V16.6667C20 18.5076 18.5076 20 16.6667 20H13.3333V18.6667H16.6667C17.7712 18.6667 18.6667 17.7712 18.6667 16.6667Z" fill="var(--fill-0, #A0A0A0)"/>
<path fill-rule="evenodd" clip-rule="evenodd" d="M3.33333 1.33333C2.22876 1.33333 1.33333 2.22876 1.33333 3.33333V6.66667H0V3.33333C0 1.49238 1.49238 0 3.33333 0H6.66667V1.33333H3.33333ZM16.6667 1.33333H13.3333V0H16.6667C18.5076 0 20 1.49238 20 3.33333V6.66667H18.6667V3.33333C18.6667 2.22876 17.7712 1.33333 16.6667 1.33333ZM17.3333 10.6667H2.66667V9.33333H17.3333V10.6667ZM0 16.6667V13.3333H1.33333V16.6667C1.33333 17.7712 2.22876 18.6667 3.33333 18.6667H6.66667V20H3.33333C1.49238 20 0 18.5076 0 16.6667ZM18.6667 16.6667V13.3333H20V16.6667C20 18.5076 18.5076 20 16.6667 20H13.3333V18.6667H16.6667C17.7712 18.6667 18.6667 17.7712 18.6667 16.6667Z" fill="var(--fill-1, black)" fill-opacity="0.2"/>
</g>
</svg>
