<svg width="21" height="21" viewBox="0 0 21 21" fill="none" xmlns="http://www.w3.org/2000/svg">
<path d="M19.6667 19.6667L14.3333 14.3333M9 17C4.58172 17 1 13.4183 1 9C1 4.58172 4.58172 1 9 1C13.4183 1 17 4.58172 17 9C17 13.4183 13.4183 17 9 17Z" stroke="#272727" stroke-width="1.5"/>
<path d="M19.6667 19.6667L14.3333 14.3333M9 17C4.58172 17 1 13.4183 1 9C1 4.58172 4.58172 1 9 1C13.4183 1 17 4.58172 17 9C17 13.4183 13.4183 17 9 17Z" stroke="black" stroke-opacity="0.2" stroke-width="1.5"/>
</svg>
